<?xml version="1.0" encoding="UTF-8" standalone="no"?>
<svg
   xmlns:dc="http://purl.org/dc/elements/1.1/"
   xmlns:cc="http://creativecommons.org/ns#"
   xmlns:rdf="http://www.w3.org/1999/02/22-rdf-syntax-ns#"
   xmlns:svg="http://www.w3.org/2000/svg"
   xmlns="http://www.w3.org/2000/svg"
   xmlns:sodipodi="http://sodipodi.sourceforge.net/DTD/sodipodi-0.dtd"
   xmlns:inkscape="http://www.inkscape.org/namespaces/inkscape"
   width="1200pt"
   height="1200pt"
   viewBox="0 0 1200 1200"
   version="1.1"
   id="svg77"
   sodipodi:docname="avatar2.svg"
   inkscape:version="0.92.4 (5da689c313, 2019-01-14)">
  <metadata
     id="metadata83">
    <rdf:RDF>
      <cc:Work
         rdf:about="">
        <dc:format>image/svg+xml</dc:format>
        <dc:type
           rdf:resource="http://purl.org/dc/dcmitype/StillImage" />
      </cc:Work>
    </rdf:RDF>
  </metadata>
  <defs
     id="defs81" />
  <sodipodi:namedview
     pagecolor="#ffffff"
     bordercolor="#666666"
     borderopacity="1"
     objecttolerance="10"
     gridtolerance="10"
     guidetolerance="10"
     inkscape:pageopacity="0"
     inkscape:pageshadow="2"
     inkscape:window-width="1366"
     inkscape:window-height="745"
     id="namedview79"
     showgrid="false"
     inkscape:zoom="1.18"
     inkscape:cx="747.6253"
     inkscape:cy="1334.303"
     inkscape:window-x="-8"
     inkscape:window-y="-8"
     inkscape:window-maximized="1"
     inkscape:current-layer="svg77" />
  <g
     id="#7c3019ff">
    <path
       fill="#7c3019"
       opacity="1.00"
       d=" M 545.06 91.42 C 573.43 88.82 602.36 90.72 629.81 98.61 C 662.12 107.57 692.43 124.12 716.81 147.20 C 742.65 171.30 761.31 203.13 768.76 237.75 C 772.78 259.59 772.49 281.91 772.44 304.03 C 772.44 376.38 772.44 448.72 772.44 521.07 C 772.45 525.33 772.20 529.62 772.81 533.86 C 790.35 547.60 805.90 563.62 821.35 579.62 C 836.11 596.09 850.26 613.12 863.39 630.93 C 864.51 632.42 865.60 633.93 866.70 635.45 C 897.47 635.24 928.25 635.46 959.02 635.34 C 966.95 635.26 974.48 640.65 977.18 648.06 C 978.83 652.15 978.43 656.64 978.49 660.95 C 978.39 719.64 978.54 778.33 978.52 837.02 C 978.59 858.29 978.36 879.56 978.64 900.82 C 977.88 907.30 979.73 914.27 976.68 920.34 C 973.80 927.19 966.42 931.88 958.98 931.51 C 930.31 931.59 901.64 931.54 872.97 931.54 C 867.78 931.61 862.19 930.73 857.49 933.50 C 831.17 946.90 804.69 959.98 778.35 973.33 C 776.44 974.23 774.48 975.03 772.55 975.86 C 772.61 990.37 771.86 1005.07 767.68 1019.06 C 758.51 1051.90 735.36 1080.48 705.15 1096.27 C 689.18 1105.03 671.12 1109.58 653.02 1110.83 C 598.02 1110.92 543.01 1110.83 488.01 1110.88 C 480.57 1111.01 473.27 1109.30 465.90 1108.51 C 447.88 1104.71 430.51 1097.23 415.81 1086.08 C 406.24 1078.51 397.00 1070.26 389.98 1060.20 C 387.07 1056.00 383.96 1051.91 381.49 1047.43 C 375.60 1036.03 370.13 1024.23 367.74 1011.54 C 365.33 1000.71 364.93 989.59 364.55 978.54 C 352.00 974.78 340.71 966.91 332.50 956.76 C 327.73 950.65 324.52 943.47 321.78 936.27 C 318.52 924.86 317.85 912.86 319.06 901.10 C 320.55 893.27 322.18 885.26 326.29 878.31 C 320.11 876.01 313.69 874.28 307.91 871.04 C 292.91 863.34 281.13 849.47 276.44 833.22 C 272.36 822.31 273.07 810.42 273.58 798.99 C 273.95 790.95 277.07 783.50 279.93 776.10 C 277.77 775.36 275.60 774.66 273.40 774.10 C 255.47 769.83 238.59 758.66 230.07 741.98 C 223.57 730.51 221.49 717.09 221.51 704.06 C 221.80 685.90 228.43 667.40 241.91 654.86 C 236.62 648.90 232.14 642.32 228.04 635.51 C 218.18 612.34 219.16 584.22 232.67 562.68 C 245.01 544.53 266.47 533.85 288.08 532.31 C 313.53 532.11 339.00 532.24 364.45 532.27 L 364.53 531.22 C 364.70 448.15 364.52 365.08 364.64 282.01 C 364.89 272.34 363.57 262.48 366.17 253.02 C 367.29 244.56 368.83 236.18 370.68 227.84 C 374.51 216.60 378.40 205.33 384.03 194.83 C 398.68 167.03 420.91 143.47 447.02 126.10 C 476.19 106.68 510.28 95.08 545.06 91.42 M 531.99 130.95 C 493.01 138.41 455.94 158.72 431.07 190.00 C 419.16 205.16 410.00 222.82 405.89 241.71 C 421.01 223.86 441.15 210.27 463.46 203.19 C 474.89 199.19 486.99 197.90 498.91 196.26 C 509.83 194.00 520.18 188.91 528.62 181.62 C 536.75 175.10 543.01 166.66 550.45 159.43 C 554.98 155.08 561.92 154.67 567.71 156.30 C 578.30 159.24 587.04 166.16 596.35 171.66 C 601.40 174.65 607.42 172.32 612.36 170.27 C 621.81 166.29 631.51 160.63 642.13 161.86 C 652.31 164.59 657.86 174.50 663.46 182.60 C 667.77 188.70 672.01 196.49 680.06 197.92 C 688.00 199.04 696.06 198.19 704.04 197.88 C 706.71 197.81 709.47 198.52 712.06 197.55 C 704.74 188.11 697.28 178.64 688.06 170.96 C 675.43 159.72 660.98 150.60 645.59 143.63 C 610.24 127.79 569.97 123.64 531.99 130.95 M 544.13 203.26 C 544.28 203.67 544.59 204.49 544.74 204.90 C 552.87 207.06 560.28 211.28 567.48 215.51 C 599.26 234.66 621.70 268.41 627.00 305.14 C 635.32 296.75 642.90 287.66 651.53 279.58 C 656.82 274.79 662.42 269.09 669.95 268.48 C 677.69 268.38 684.27 273.20 689.89 278.03 C 704.53 291.40 716.19 307.73 726.00 324.88 C 729.01 323.54 731.89 321.92 734.67 320.15 C 734.66 311.07 734.79 301.99 734.46 292.93 C 728.56 281.67 718.50 272.68 714.91 260.18 C 711.12 248.88 713.53 236.83 711.24 225.29 C 707.25 224.13 703.08 224.46 699.00 224.60 C 688.05 225.17 676.55 225.87 666.25 221.38 C 654.55 216.61 646.93 205.85 640.23 195.67 C 638.64 193.60 637.60 190.84 635.30 189.51 C 628.33 191.81 622.00 195.78 614.88 197.67 C 608.42 199.77 601.49 199.97 594.81 199.12 C 583.36 197.09 574.73 188.67 564.71 183.44 C 557.82 190.02 551.69 197.41 544.13 203.26 M 506.23 220.25 C 506.23 220.86 506.23 222.08 506.23 222.69 C 509.90 222.67 513.75 222.97 517.19 221.40 C 513.68 220.12 509.91 220.19 506.23 220.25 M 467.18 230.10 C 430.60 243.37 403.47 279.88 402.53 318.95 C 402.52 323.72 401.93 329.04 404.74 333.22 C 409.32 339.76 416.31 344.01 423.22 347.73 C 429.74 350.98 436.30 354.28 443.24 356.57 C 451.28 342.33 463.87 331.65 475.12 320.07 C 482.36 312.98 489.06 305.20 497.56 299.55 C 500.40 297.53 503.55 296.01 506.41 294.03 L 507.26 294.41 L 508.20 293.85 L 508.24 292.94 C 511.99 292.39 515.29 290.30 518.96 289.41 C 536.71 284.37 556.36 285.88 572.91 294.17 C 584.16 299.53 593.43 308.19 601.47 317.56 C 600.46 295.71 591.38 274.46 577.08 258.01 C 570.33 250.83 563.14 243.50 554.26 239.08 L 554.30 238.18 L 553.42 237.54 L 552.55 237.84 C 547.34 234.12 541.30 231.77 535.34 229.56 C 513.51 221.60 488.89 221.87 467.18 230.10 M 665.42 303.39 C 656.42 312.41 647.98 321.98 639.51 331.50 C 618.59 354.97 598.29 379.01 578.19 403.19 C 576.04 405.92 573.29 408.24 571.89 411.48 C 575.89 414.58 579.46 418.17 582.94 421.84 C 591.51 415.78 599.54 408.90 608.80 403.88 C 621.14 396.49 634.40 390.89 647.44 384.89 C 665.29 377.49 682.73 369.12 699.67 359.82 C 703.53 357.86 707.49 356.04 710.90 353.33 C 707.54 345.30 702.72 338.01 698.46 330.45 C 691.17 318.38 682.09 307.48 672.05 297.61 C 669.43 299.01 667.51 301.35 665.42 303.39 M 508.57 324.58 C 499.90 332.24 492.33 341.03 484.05 349.08 C 478.92 354.33 473.38 359.26 469.10 365.27 C 472.53 366.98 476.24 368.01 479.90 369.12 C 500.61 375.57 521.65 381.41 541.30 390.75 C 544.19 392.04 546.74 394.18 549.90 394.80 C 553.04 392.33 555.32 388.97 557.99 386.03 C 569.04 372.36 580.60 359.12 591.94 345.69 C 588.73 341.40 584.48 338.07 580.88 334.14 C 575.85 329.17 571.16 323.67 564.97 320.10 C 557.73 315.83 549.37 313.37 540.95 313.22 C 529.23 312.71 517.55 317.16 508.57 324.58 M 402.33 379.01 C 402.38 430.21 402.32 481.40 402.36 532.60 C 416.97 534.30 431.17 540.14 442.42 549.67 C 454.61 560.01 462.36 575.14 464.28 590.95 C 467.80 613.58 461.77 638.82 444.42 654.60 C 460.26 668.86 466.51 691.25 465.01 712.02 C 464.16 724.99 460.25 737.91 452.61 748.53 C 450.12 752.28 446.64 755.20 443.81 758.68 C 457.94 771.96 464.20 791.95 463.56 811.01 C 463.66 829.06 456.98 847.38 443.91 860.05 C 451.42 867.29 457.46 876.08 460.89 885.96 C 464.76 897.82 466.35 910.63 464.47 923.03 C 462.87 938.54 455.80 953.62 444.19 964.15 C 432.81 974.68 417.80 981.15 402.42 982.75 C 402.00 994.77 404.44 1006.78 408.87 1017.93 C 418.01 1040.84 437.23 1059.40 460.41 1067.83 C 475.53 1073.83 492.05 1073.48 508.04 1073.28 C 519.93 1072.93 531.88 1073.81 543.74 1072.77 C 566.17 1071.37 585.46 1050.45 584.80 1027.96 C 584.70 892.54 584.97 757.11 584.67 621.69 C 565.15 621.10 545.43 617.63 527.55 609.56 C 511.08 602.18 496.88 589.34 489.13 572.92 C 479.20 552.89 478.22 530.00 478.17 508.05 C 478.35 502.64 477.35 496.86 479.88 491.83 C 482.94 484.84 490.48 480.32 498.06 480.51 C 525.30 480.54 552.55 480.71 579.80 480.58 C 570.30 462.30 556.88 446.05 540.31 433.76 C 526.35 422.90 509.19 417.62 492.66 412.10 C 462.13 402.36 430.67 394.38 402.33 379.01 M 692.26 406.07 C 673.27 414.46 653.98 422.22 635.44 431.60 C 624.97 436.89 615.53 443.90 606.12 450.82 C 608.15 455.83 611.38 460.24 613.61 465.17 C 616.27 470.08 618.17 475.33 620.34 480.46 C 632.81 481.26 645.40 479.88 657.85 481.25 C 685.12 482.60 711.21 492.95 734.46 506.80 C 735.07 496.90 734.56 486.96 734.72 477.04 C 734.70 446.64 734.78 416.25 734.69 385.85 C 720.68 392.86 706.65 399.85 692.26 406.07 M 516.65 519.36 C 517.24 531.84 518.18 544.73 523.68 556.16 C 528.01 565.25 536.49 571.71 545.64 575.49 C 558.06 580.83 571.65 582.37 585.00 583.43 C 606.98 583.83 628.96 583.50 650.93 583.64 C 656.00 583.79 661.05 585.66 664.70 589.24 C 698.97 623.66 733.20 658.12 767.52 692.51 C 771.32 696.31 773.38 701.69 773.37 707.05 C 773.36 782.36 773.34 857.67 773.38 932.98 C 798.09 920.27 823.05 908.06 847.83 895.48 C 852.78 892.70 858.59 893.38 864.04 893.34 C 889.47 893.37 914.90 893.34 940.34 893.35 C 940.38 820.27 940.25 747.18 940.40 674.09 C 911.93 673.47 883.43 674.13 854.95 673.77 C 849.19 673.49 843.93 669.99 840.74 665.31 C 824.80 642.28 806.92 620.64 787.92 600.08 C 765.44 576.59 741.00 554.51 712.76 538.12 C 693.64 527.36 672.28 519.21 650.06 519.38 C 605.59 519.46 561.12 519.25 516.65 519.36 M 285.43 571.61 C 277.92 573.11 270.35 576.43 265.53 582.61 C 261.08 588.42 259.89 595.95 259.70 603.08 C 259.75 611.77 262.01 621.23 268.94 627.05 C 276.14 633.04 285.77 635.51 295.01 635.27 C 326.33 635.37 357.65 635.32 388.97 635.30 C 399.35 635.71 410.47 633.54 418.39 626.41 C 425.06 620.29 427.04 610.69 426.62 601.98 C 426.89 593.46 424.08 584.30 417.31 578.76 C 409.88 573.05 400.30 570.51 391.01 570.72 C 361.34 570.78 331.66 570.72 301.98 570.75 C 296.46 570.81 290.86 570.34 285.43 571.61 M 622.27 622.28 C 622.32 757.50 622.26 892.72 622.30 1027.94 C 621.91 1039.95 619.55 1052.04 614.21 1062.89 C 612.78 1066.52 609.94 1069.51 609.16 1073.41 C 620.46 1073.26 631.76 1073.37 643.06 1073.34 C 661.74 1073.96 680.65 1068.64 696.07 1058.02 C 720.37 1041.60 736.08 1012.48 734.72 982.98 C 734.58 893.34 734.93 803.67 734.55 714.05 C 728.40 707.35 721.82 701.01 715.38 694.58 C 691.99 671.01 668.50 647.55 645.10 623.99 C 644.26 623.22 643.40 622.23 642.14 622.36 C 635.52 622.17 628.89 622.38 622.27 622.28 M 290.09 674.07 C 282.33 674.83 274.55 677.48 268.52 682.53 C 261.88 688.36 259.84 697.56 259.71 706.05 C 259.80 713.81 261.28 722.24 266.84 728.07 C 273.94 735.71 284.89 738.60 295.04 738.47 C 324.67 738.56 354.30 738.17 383.94 738.29 C 390.16 738.11 396.49 738.88 402.60 737.34 C 409.51 735.74 416.43 732.56 420.88 726.85 C 425.67 720.68 426.98 712.55 426.61 704.93 C 426.91 696.43 424.02 687.34 417.19 681.90 C 409.34 675.59 398.90 673.61 389.05 673.83 C 356.07 674.02 323.06 673.55 290.09 674.07 M 338.47 777.61 C 330.21 779.10 321.59 782.43 316.53 789.49 C 311.34 796.48 310.94 805.61 311.43 813.97 C 311.82 821.77 315.10 829.76 321.58 834.44 C 328.35 839.21 336.71 841.61 344.96 841.60 C 359.98 841.62 375.00 841.66 390.02 841.40 C 399.56 841.90 409.59 839.17 416.83 832.77 C 422.66 827.54 424.75 819.55 425.28 812.01 C 425.70 802.82 423.87 792.60 416.89 786.05 C 409.82 779.95 400.28 777.11 391.04 777.17 C 377.37 777.17 363.69 777.17 350.02 777.16 C 346.17 777.16 342.29 777.05 338.47 777.61 M 381.99 881.04 C 373.68 882.85 364.91 886.79 360.74 894.65 C 355.72 903.20 357.07 913.56 357.70 923.00 C 358.83 926.13 359.92 929.35 361.95 932.05 C 366.75 939.14 375.25 942.45 383.33 944.07 C 394.85 945.69 407.52 944.27 416.97 936.98 C 424.44 931.15 427.09 921.17 426.62 912.06 C 427.10 902.95 424.03 893.10 416.46 887.52 C 406.67 880.28 393.70 879.00 381.99 881.04 Z"
       id="path5" />
  </g>
  <g
     id="#f5822dff">
    <path
       fill="#f5822d"
       opacity="1.00"
       d=" M 531.99 130.95 C 569.97 123.64 610.24 127.79 645.59 143.63 C 660.98 150.60 675.43 159.72 688.06 170.96 C 697.28 178.64 704.74 188.11 712.06 197.55 C 709.47 198.52 706.71 197.81 704.04 197.88 C 696.06 198.19 688.00 199.04 680.06 197.92 C 672.01 196.49 667.77 188.70 663.46 182.60 C 657.86 174.50 652.31 164.59 642.13 161.86 C 631.51 160.63 621.81 166.29 612.36 170.27 C 607.42 172.32 601.40 174.65 596.35 171.66 C 587.04 166.16 578.30 159.24 567.71 156.30 C 561.92 154.67 554.98 155.08 550.45 159.43 C 543.01 166.66 536.75 175.10 528.62 181.62 C 520.18 188.91 509.83 194.00 498.91 196.26 C 486.99 197.90 474.89 199.19 463.46 203.19 C 441.15 210.27 421.01 223.86 405.89 241.71 C 410.00 222.82 419.16 205.16 431.07 190.00 C 455.94 158.72 493.01 138.41 531.99 130.95 Z"
       id="path8" />
  </g>
  <g
     id="#9fc85eff">
    <path
       fill="#9fc85e"
       opacity="1.00"
       d=" M 544.13 203.26 C 551.69 197.41 557.82 190.02 564.71 183.44 C 574.73 188.67 583.36 197.09 594.81 199.12 C 601.49 199.97 608.42 199.77 614.88 197.67 C 622.00 195.78 628.33 191.81 635.30 189.51 C 637.60 190.84 638.64 193.60 640.23 195.67 C 646.93 205.85 654.55 216.61 666.25 221.38 C 676.55 225.87 688.05 225.17 699.00 224.60 C 703.08 224.46 707.25 224.13 711.24 225.29 C 713.53 236.83 711.12 248.88 714.91 260.18 C 718.50 272.68 728.56 281.67 734.46 292.93 C 734.79 301.99 734.66 311.07 734.67 320.15 C 731.89 321.92 729.01 323.54 726.00 324.88 C 716.19 307.73 704.53 291.40 689.89 278.03 C 684.27 273.20 677.69 268.38 669.95 268.48 C 662.42 269.09 656.82 274.79 651.53 279.58 C 642.90 287.66 635.32 296.75 627.00 305.14 C 621.70 268.41 599.26 234.66 567.48 215.51 C 560.28 211.28 552.87 207.06 544.74 204.90 C 544.59 204.49 544.28 203.67 544.13 203.26 Z"
       id="path16" />
  </g>
  <g
     id="#732745ff">
    <path
       fill="#732745"
       opacity="1.00"
       d=" M 506.23 220.25 C 509.91 220.19 513.68 220.12 517.19 221.40 C 513.75 222.97 509.90 222.67 506.23 222.69 C 506.23 222.08 506.23 220.86 506.23 220.25 Z"
       id="path19" />
  </g>
  <g
     id="#f9dc3bff">
    <path
       fill="#f9dc3b"
       opacity="1.00"
       d=" M 467.18 230.10 C 488.89 221.87 513.51 221.60 535.34 229.56 C 541.30 231.77 547.34 234.12 552.55 237.84 C 552.98 238.15 553.83 238.77 554.26 239.08 C 563.14 243.50 570.33 250.83 577.08 258.01 C 591.38 274.46 600.46 295.71 601.47 317.56 C 593.43 308.19 584.16 299.53 572.91 294.17 C 556.36 285.88 536.71 284.37 518.96 289.41 C 515.29 290.30 511.99 292.39 508.24 292.94 C 507.78 293.21 506.87 293.75 506.41 294.03 C 503.55 296.01 500.40 297.53 497.56 299.55 C 489.06 305.20 482.36 312.98 475.12 320.07 C 463.87 331.65 451.28 342.33 443.24 356.57 C 436.30 354.28 429.74 350.98 423.22 347.73 C 416.31 344.01 409.32 339.76 404.74 333.22 C 401.93 329.04 402.52 323.72 402.53 318.95 C 403.47 279.88 430.60 243.37 467.18 230.10 Z"
       id="path22" />
  </g>
  <g
     id="#eeba71ff">
    <path
       fill="#eeba71"
       opacity="1.00"
       d=" M 552.55 237.84 L 553.42 237.54 L 554.30 238.18 L 554.26 239.08 C 553.83 238.77 552.98 238.15 552.55 237.84 Z"
       id="path25" />
  </g>
  <g
     id="#efb573ff">
    <path
       fill="#efb573"
       opacity="1.00"
       d=" M 506.41 294.03 C 506.87 293.75 507.78 293.21 508.24 292.94 L 508.20 293.85 L 507.26 294.41 L 506.41 294.03 Z"
       id="path28" />
  </g>
  <g
     id="#f05458ff">
    <path
       fill="#f05458"
       opacity="1.00"
       d=" M 665.42 303.39 C 667.51 301.35 669.43 299.01 672.05 297.61 C 682.09 307.48 691.17 318.38 698.46 330.45 C 702.72 338.01 707.54 345.30 710.90 353.33 C 707.49 356.04 703.53 357.86 699.67 359.82 C 682.73 369.12 665.29 377.49 647.44 384.89 C 634.40 390.89 621.14 396.49 608.80 403.88 C 599.54 408.90 591.51 415.78 582.94 421.84 C 579.46 418.17 575.89 414.58 571.89 411.48 C 573.29 408.24 576.04 405.92 578.19 403.19 C 598.29 379.01 618.59 354.97 639.51 331.50 C 647.98 321.98 656.42 312.41 665.42 303.39 Z"
       id="path31" />
  </g>
  <g
     id="#a35834ff">
    <path
       fill="#a35834"
       opacity="1.00"
       d=" M 508.57 324.58 C 517.55 317.16 529.23 312.71 540.95 313.22 C 549.37 313.37 557.73 315.83 564.97 320.10 C 571.16 323.67 575.85 329.17 580.88 334.14 C 584.48 338.07 588.73 341.40 591.94 345.69 C 580.60 359.12 569.04 372.36 557.99 386.03 C 555.32 388.97 553.04 392.33 549.90 394.80 C 546.74 394.18 544.19 392.04 541.30 390.75 C 521.65 381.41 500.61 375.57 479.90 369.12 C 476.24 368.01 472.53 366.98 469.10 365.27 C 473.38 359.26 478.92 354.33 484.05 349.08 C 492.33 341.03 499.90 332.24 508.57 324.58 Z"
       id="path34" />
  </g>
  <g
     id="#f9caa0ff">
    <path
       fill="#f9caa0"
       opacity="1.00"
       d=" M 402.33 379.01 C 430.67 394.38 462.13 402.36 492.66 412.10 C 509.19 417.62 526.35 422.90 540.31 433.76 C 556.88 446.05 570.30 462.30 579.80 480.58 C 552.55 480.71 525.30 480.54 498.06 480.51 C 490.48 480.32 482.94 484.84 479.88 491.83 C 477.35 496.86 478.35 502.64 478.17 508.05 C 478.22 530.00 479.20 552.89 489.13 572.92 C 496.88 589.34 511.08 602.18 527.55 609.56 C 545.43 617.63 565.15 621.10 584.67 621.69 C 584.97 757.11 584.70 892.54 584.80 1027.96 C 585.46 1050.45 566.17 1071.37 543.74 1072.77 C 531.88 1073.81 519.93 1072.93 508.04 1073.28 C 492.05 1073.48 475.53 1073.83 460.41 1067.83 C 437.23 1059.40 418.01 1040.84 408.87 1017.93 C 404.44 1006.78 402.00 994.77 402.42 982.75 C 417.80 981.15 432.81 974.68 444.19 964.15 C 455.80 953.62 462.87 938.54 464.47 923.03 C 466.35 910.63 464.76 897.82 460.89 885.96 C 457.46 876.08 451.42 867.29 443.91 860.05 C 456.98 847.38 463.66 829.06 463.56 811.01 C 464.20 791.95 457.94 771.96 443.81 758.68 C 446.64 755.20 450.12 752.28 452.61 748.53 C 460.25 737.91 464.16 724.99 465.01 712.02 C 466.51 691.25 460.26 668.86 444.42 654.60 C 461.77 638.82 467.80 613.58 464.28 590.95 C 462.36 575.14 454.61 560.01 442.42 549.67 C 431.17 540.14 416.97 534.30 402.36 532.60 C 402.32 481.40 402.38 430.21 402.33 379.01 Z"
       id="path37" />
  </g>
  <g
     id="#f5832dff">
    <path
       fill="#f5832d"
       opacity="1.00"
       d=" M 692.26 406.07 C 706.65 399.85 720.68 392.86 734.69 385.85 C 734.78 416.25 734.70 446.64 734.72 477.04 C 734.56 486.96 735.07 496.90 734.46 506.80 C 711.21 492.95 685.12 482.60 657.85 481.25 C 645.40 479.88 632.81 481.26 620.34 480.46 C 618.17 475.33 616.27 470.08 613.61 465.17 C 611.38 460.24 608.15 455.83 606.12 450.82 C 615.53 443.90 624.97 436.89 635.44 431.60 C 653.98 422.22 673.27 414.46 692.26 406.07 Z"
       id="path40" />
    <path
       fill="#f5832d"
       opacity="1.00"
       d=" M 622.27 622.28 C 628.89 622.38 635.52 622.17 642.14 622.36 C 643.40 622.23 644.26 623.22 645.10 623.99 C 668.50 647.55 691.99 671.01 715.38 694.58 C 721.82 701.01 728.40 707.35 734.55 714.05 C 734.93 803.67 734.58 893.34 734.72 982.98 C 736.08 1012.48 720.37 1041.60 696.07 1058.02 C 680.65 1068.64 661.74 1073.96 643.06 1073.34 C 631.76 1073.37 620.46 1073.26 609.16 1073.41 C 609.94 1069.51 612.78 1066.52 614.21 1062.89 C 619.55 1052.04 621.91 1039.95 622.30 1027.94 C 622.26 892.72 622.32 757.50 622.27 622.28 Z"
       id="path42" />
  </g>
  <g
     id="#ecc4bcff">
    <path
       fill="#ecc4bc"
       opacity="1.00"
       d=" M 516.65 519.36 C 561.12 519.25 605.59 519.46 650.06 519.38 C 672.28 519.21 693.64 527.36 712.76 538.12 C 741.00 554.51 765.44 576.59 787.92 600.08 C 806.92 620.64 824.80 642.28 840.74 665.31 C 843.93 669.99 849.19 673.49 854.95 673.77 C 883.43 674.13 911.93 673.47 940.40 674.09 C 940.25 747.18 940.38 820.27 940.34 893.35 C 914.90 893.34 889.47 893.37 864.04 893.34 C 858.59 893.38 852.78 892.70 847.83 895.48 C 823.05 908.06 798.09 920.27 773.38 932.98 C 773.34 857.67 773.36 782.36 773.37 707.05 C 773.38 701.69 771.32 696.31 767.52 692.51 C 733.20 658.12 698.97 623.66 664.70 589.24 C 661.05 585.66 656.00 583.79 650.93 583.64 C 628.96 583.50 606.98 583.83 585.00 583.43 C 571.65 582.37 558.06 580.83 545.64 575.49 C 536.49 571.71 528.01 565.25 523.68 556.16 C 518.18 544.73 517.24 531.84 516.65 519.36 Z"
       id="path51" />
    <path
       fill="#ecc4bc"
       opacity="1.00"
       d=" M 285.43 571.61 C 290.86 570.34 296.46 570.81 301.98 570.75 C 331.66 570.72 361.34 570.78 391.01 570.72 C 400.30 570.51 409.88 573.05 417.31 578.76 C 424.08 584.30 426.89 593.46 426.62 601.98 C 427.04 610.69 425.06 620.29 418.39 626.41 C 410.47 633.54 399.35 635.71 388.97 635.30 C 357.65 635.32 326.33 635.37 295.01 635.27 C 285.77 635.51 276.14 633.04 268.94 627.05 C 262.01 621.23 259.75 611.77 259.70 603.08 C 259.89 595.95 261.08 588.42 265.53 582.61 C 270.35 576.43 277.92 573.11 285.43 571.61 Z"
       id="path53" />
    <path
       fill="#ecc4bc"
       opacity="1.00"
       d=" M 290.09 674.07 C 323.06 673.55 356.07 674.02 389.05 673.83 C 398.90 673.61 409.34 675.59 417.19 681.90 C 424.02 687.34 426.91 696.43 426.61 704.93 C 426.98 712.55 425.67 720.68 420.88 726.85 C 416.43 732.56 409.51 735.74 402.60 737.34 C 396.49 738.88 390.16 738.11 383.94 738.29 C 354.30 738.17 324.67 738.56 295.04 738.47 C 284.89 738.60 273.94 735.71 266.84 728.07 C 261.28 722.24 259.80 713.81 259.71 706.05 C 259.84 697.56 261.88 688.36 268.52 682.53 C 274.55 677.48 282.33 674.83 290.09 674.07 Z"
       id="path55" />
    <path
       fill="#ecc4bc"
       opacity="1.00"
       d=" M 338.47 777.61 C 342.29 777.05 346.17 777.16 350.02 777.16 C 363.69 777.17 377.37 777.17 391.04 777.17 C 400.28 777.11 409.82 779.95 416.89 786.05 C 423.87 792.60 425.70 802.82 425.28 812.01 C 424.75 819.55 422.66 827.54 416.83 832.77 C 409.59 839.17 399.56 841.90 390.02 841.40 C 375.00 841.66 359.98 841.62 344.96 841.60 C 336.71 841.61 328.35 839.21 321.58 834.44 C 315.10 829.76 311.82 821.77 311.43 813.97 C 310.94 805.61 311.34 796.48 316.53 789.49 C 321.59 782.43 330.21 779.10 338.47 777.61 Z"
       id="path57" />
    <path
       fill="#ecc4bc"
       opacity="1.00"
       d=" M 381.99 881.04 C 393.70 879.00 406.67 880.28 416.46 887.52 C 424.03 893.10 427.10 902.95 426.62 912.06 C 427.09 921.17 424.44 931.15 416.97 936.98 C 407.52 944.27 394.85 945.69 383.33 944.07 C 375.25 942.45 366.75 939.14 361.95 932.05 C 359.92 929.35 358.83 926.13 357.70 923.00 C 357.07 913.56 355.72 903.20 360.74 894.65 C 364.91 886.79 373.68 882.85 381.99 881.04 Z"
       id="path59" />
  </g>
</svg>
